{"title":"Preacher S01E09 1080p WEB-DL HEVC DD5.1 x265 [1080P][HEVC]","uid":15400663,"size":830873241,"categoryP":"video","categoryS":"hd___tv_shows","magnet":"?xt=urn:btih:53004eaa408ac9d0395946a630a0a06f17c451d4&amp;dn=Preacher+S01E09+1080p+WEB-DL+HEVC+DD5.1+x265+%5B1080P%5D%5BHEVC%5D&amp;tr=udp%3A%2F%2Ftracker.leechers-paradise.org%3A6969&amp;tr=udp%3A%2F%2Fzer0day.ch%3A1337&amp;tr=udp%3A%2F%2Fopen.demonii.com%3A1337&amp;tr=udp%3A%2F%2Ftracker.coppersurfer.tk%3A6969&amp;tr=udp%3A%2F%2Fexodus.desync.com%3A6969","seeders":16,"leechers":3,"uploader":"nayhtut","files":1,"time":1469451956,"description":"[Screenshots]\r\n\r\n \nhttps://s32.postimg.org/x9ctj5y6d/Preacher_S01_E09_1080p_WEB_DL_HEVC_DD5_1_x265_010.jpg \nhttps://s32.postimg.org/6csuaufd1/Preacher_S01_E09_1080p_WEB_DL_HEVC_DD5_1_x265_005.jpg \nhttps://s32.postimg.org/q8tf44ls5/Preacher_S01_E09_1080p_WEB_DL_HEVC_DD5_1_x265_004.jpg\r\n\r\n\r\n\r\nSource: Preacher S01E09 1080p WEB-DL DD5 1 H264-RARBG (1.78 GB)\r\n\r\n\r\n__--__--__--__--__--__--__--__--__--__--__--__--__--\r\n\r\n\r\nComplete name                            : Preacher.S01E09.1080p.WEB-DL.HEVC.DD5.1.x265.mkv\r\nFormat                                   : Matroska\r\nFormat version                           : Version 4 / Version 2\r\nFile size                                : 792 MiB\r\nDuration                                 : 47mn 40s\r\nOverall bit rate                         : 2 324 Kbps\r\nWriting application                      : Lavf57.25.100\r\nWriting library                          : Lavf57.25.100\r\n\r\nVideo\r\n\r\nID                                       : 1\r\nFormat                                   : V_MPEGH/ISO/HEVC\r\nCodec ID                                 : V_MPEGH/ISO/HEVC\r\nDuration                                 : 47mn 40s\r\nBit rate                                 : 1 894 Kbps\r\nWidth                                    : 1 916 pixels\r\nHeight                                   : 1 076 pixels\r\nDisplay aspect ratio                     : 16:9\r\nFrame rate                               : 25.000 fps\r\nBits/(Pixel*Frame)                       : 0.037\r\nStream size                              : 646 MiB (81%)\r\nWriting library                          : Lavc57.48.101 libx265\r\nLanguage                                 : English\r\nDefault                                  : Yes\r\nForced                                   : No\r\nDURATION                                 : 00:47:40.251000000\r\n\r\nAudio\r\n\r\nID                                       : 2\r\nFormat                                   : AC-3\r\nFormat/Info                              : Audio Coding 3\r\nMode extension                           : CM (complete main)\r\nFormat settings, Endianness              : Big\r\nCodec ID                                 : A_AC3\r\nDuration                                 : 47mn 40s\r\nBit rate mode                            : Constant\r\nBit rate                                 : 384 Kbps\r\nChannel(s)                               : 6 channels\r\nChannel positions                        : Front: L C R, Side: L R, LFE\r\nSampling rate                            : 48.0 KHz\r\nBit depth                                : 16 bits\r\nCompression mode                         : Lossy\r\nStream size                              : 131 MiB (17%)\r\nWriting library                          : Lavc57.24.102 ac3\r\nLanguage                                 : English\r\nDefault                                  : Yes\r\nForced                                   : No\r\nDURATION                                 : 00:47:40.223000000\r\n\r\nText\r\n\r\nID                                       : 3\r\nFormat                                   : ASS\r\nCodec ID                                 : S_TEXT/ASS\r\nCodec ID/Info                            : Advanced Sub Station Alpha\r\nCompression mode                         : Lossless\r\nWriting library                          : Lavc57.48.101 ssa\r\nLanguage                                 : English\r\nDefault                                  : Yes\r\nForced                                   : No\r\nDURATION                                 : 00:46:50.224000000\r\n\r\n\r\n__--__--__--__--__--__--__--__--__--__--__--__--__--\r\n\r\n\r\nIMDb: http://www.imdb.com/title/tt5016504\r\n\r\n\r\n __--__--__--__--__--__--__--__--__--__--__--__--__--\r\n\r\n\r\nAfter adding torrent with maget link,\r\n\r\nplease add this  following trackers list to the torrent for better seeds.\r\n\r\n\r\nudp://tracker.coppersurfer.tk:6969/announce\r\n\r\nudp://tracker.opentrackr.org:1337/announce\r\n \nhttp://tracker.baravik.org:6970/announce\r\n \nhttp://tracker2.wasabii.com.tw:6969/announce\r\n\r\nudp://9.rarbg.me:2710/announce\r\n\r\n\r\n__--__--__--__--__--__--__--__--__--__--__--__--__--\r\n\r\n\r\nEnjoy!","torrent":{"xt":"urn:btih:53004eaa408ac9d0395946a630a0a06f17c451d4","amp;dn":"Preacher+S01E09+1080p+WEB-DL+HEVC+DD5.1+x265+%5B1080P%5D%5BHEVC%5D","amp;tr":["udp%3A%2F%2Ftracker.leechers-paradise.org%3A6969","udp%3A%2F%2Fzer0day.ch%3A1337","udp%3A%2F%2Fopen.demonii.com%3A1337","udp%3A%2F%2Ftracker.coppersurfer.tk%3A6969","udp%3A%2F%2Fexodus.desync.com%3A6969"],"infoHash":"53004eaa408ac9d0395946a630a0a06f17c451d4","infoHashBuffer":{"type":"Buffer","data":[83,0,78,170,64,138,201,208,57,89,70,166,48,160,160,111,23,196,81,212]},"announce":[],"urlList":[]}}